<?xml version="1.0" standalone="no"?><!-- Generator: Gravit.io --><svg xmlns="http://www.w3.org/2000/svg" xmlns:xlink="http://www.w3.org/1999/xlink" style="isolation:isolate" viewBox="645.727 257.95 689.978 188.138" width="689.978" height="188.138"><defs><clipPath id="_clipPath_pBGS9RVqKrgpDOUJWW2StBxdoEaaO4Zd"><rect x="645.727" y="257.95" width="689.978" height="188.138"/></clipPath></defs><g clip-path="url(#_clipPath_pBGS9RVqKrgpDOUJWW2StBxdoEaaO4Zd)"><path d=" M 849.364 392.407 L 849.364 392.407 L 849.364 392.407 Q 837.368 406.468 816.916 406.468 L 816.916 406.468 L 816.916 406.468 Q 796.465 406.468 784.469 392.505 L 784.469 392.505 L 784.469 392.505 Q 772.473 378.543 772.473 353.962 L 772.473 353.962 L 772.473 353.962 Q 772.473 329.381 784.469 315.32 L 784.469 315.32 L 784.469 315.32 Q 796.465 301.26 816.916 301.26 L 816.916 301.26 L 816.916 301.26 Q 837.368 301.26 849.364 315.222 L 849.364 315.222 L 849.364 315.222 Q 861.359 329.184 861.359 353.765 L 861.359 353.765 L 861.359 353.765 Q 861.359 378.347 849.364 392.407 Z  M 796.956 380.805 L 796.956 380.805 L 796.956 380.805 Q 804.134 390.539 816.916 390.539 L 816.916 390.539 L 816.916 390.539 Q 829.699 390.539 836.876 380.805 L 836.876 380.805 L 836.876 380.805 Q 844.054 371.071 844.054 353.765 L 844.054 353.765 L 844.054 353.765 Q 844.054 336.657 836.876 326.824 L 836.876 326.824 L 836.876 326.824 Q 829.699 316.992 816.916 316.992 L 816.916 316.992 L 816.916 316.992 Q 804.134 316.992 796.956 326.726 L 796.956 326.726 L 796.956 326.726 Q 789.779 336.46 789.779 353.962 L 789.779 353.962 L 789.779 353.962 Q 789.779 371.071 796.956 380.805 Z  M 918.978 444.814 L 918.978 444.814 L 910.718 431.442 L 910.718 431.442 Q 932.547 430.262 940.904 423.871 L 940.904 423.871 L 940.904 423.871 Q 949.262 417.48 949.262 406.468 L 949.262 406.468 L 949.262 394.275 L 949.262 394.275 Q 940.413 406.468 923.304 406.468 L 923.304 406.468 L 923.304 406.468 Q 905.606 406.468 893.905 392.702 L 893.905 392.702 L 893.905 392.702 Q 882.204 378.937 882.204 353.765 L 882.204 353.765 L 882.204 353.765 Q 882.204 329.381 893.708 315.32 L 893.708 315.32 L 893.708 315.32 Q 905.212 301.26 923.894 301.26 L 923.894 301.26 L 923.894 301.26 Q 939.626 301.26 949.262 311.879 L 949.262 311.879 L 949.262 303.62 L 966.37 303.62 L 966.37 399.978 L 966.37 399.978 Q 966.37 422.986 954.08 433.212 L 954.08 433.212 L 954.08 433.212 Q 941.789 443.438 918.978 444.814 Z  M 926.844 390.539 L 926.844 390.539 L 926.844 390.539 Q 933.137 390.539 939.331 386.704 L 939.331 386.704 L 939.331 386.704 Q 945.526 382.87 949.262 376.38 L 949.262 376.38 L 949.262 330.364 L 949.262 330.364 Q 945.722 324.464 939.233 320.728 L 939.233 320.728 L 939.233 320.728 Q 932.743 316.992 926.844 316.992 L 926.844 316.992 L 926.844 316.992 Q 913.472 316.992 906.49 326.529 L 906.49 326.529 L 906.49 326.529 Q 899.509 336.067 899.509 353.765 L 899.509 353.765 L 899.509 353.765 Q 899.509 370.874 907.08 380.706 L 907.08 380.706 L 907.08 380.706 Q 914.651 390.539 926.844 390.539 Z  M 1077.871 404.108 L 1060.763 404.108 L 1060.763 343.343 L 1060.763 343.343 Q 1060.763 329.774 1054.961 323.383 L 1054.961 323.383 L 1054.961 323.383 Q 1049.16 316.992 1039.131 316.992 L 1039.131 316.992 L 1039.131 316.992 Q 1015.926 316.992 1015.926 342.95 L 1015.926 342.95 L 1015.926 404.108 L 998.818 404.108 L 998.818 303.62 L 1015.926 303.62 L 1015.926 313.845 L 1015.926 313.845 Q 1025.169 301.26 1041.884 301.26 L 1041.884 301.26 L 1041.884 301.26 Q 1059.583 301.26 1068.727 311.977 L 1068.727 311.977 L 1068.727 311.977 Q 1077.871 322.695 1077.871 346.293 L 1077.871 346.293 L 1077.871 404.108 Z  M 1125.854 282.283 L 1125.854 282.283 L 1125.854 282.283 Q 1122.707 285.331 1118.184 285.331 L 1118.184 285.331 L 1118.184 285.331 Q 1113.661 285.331 1110.613 282.185 L 1110.613 282.185 L 1110.613 282.185 Q 1107.565 279.038 1107.565 274.712 L 1107.565 274.712 L 1107.565 274.712 Q 1107.565 270.189 1110.712 266.944 L 1110.712 266.944 L 1110.712 266.944 Q 1113.858 263.7 1118.184 263.7 L 1118.184 263.7 L 1118.184 263.7 Q 1122.707 263.7 1125.854 266.944 L 1125.854 266.944 L 1125.854 266.944 Q 1129 270.189 1129 274.712 L 1129 274.712 L 1129 274.712 Q 1129 279.235 1125.854 282.283 Z  M 1126.837 404.108 L 1109.728 404.108 L 1109.728 303.62 L 1126.837 303.62 L 1126.837 404.108 Z  M 1189.175 406.468 L 1189.175 406.468 L 1189.175 406.468 Q 1178.359 406.468 1168.625 401.846 L 1168.625 401.846 L 1168.625 401.846 Q 1158.891 397.225 1152.795 389.556 L 1152.795 389.556 L 1164.987 379.133 L 1164.987 379.133 Q 1176.196 391.129 1189.568 391.129 L 1189.568 391.129 L 1189.568 391.129 Q 1198.024 391.129 1203.137 387.884 L 1203.137 387.884 L 1203.137 387.884 Q 1208.25 384.639 1208.25 378.347 L 1208.25 378.347 L 1208.25 378.347 Q 1208.25 373.627 1204.514 369.792 L 1204.514 369.792 L 1204.514 369.792 Q 1200.777 365.958 1196.844 364.089 L 1196.844 364.089 L 1196.844 364.089 Q 1192.911 362.221 1185.242 359.272 L 1185.242 359.272 L 1185.242 359.272 Q 1169.903 353.569 1162.037 346.489 L 1162.037 346.489 L 1162.037 346.489 Q 1154.171 339.41 1154.171 327.808 L 1154.171 327.808 L 1154.171 327.808 Q 1154.171 315.615 1163.709 308.437 L 1163.709 308.437 L 1163.709 308.437 Q 1173.246 301.26 1187.995 301.26 L 1187.995 301.26 L 1187.995 301.26 Q 1209.037 301.26 1221.819 316.402 L 1221.819 316.402 L 1210.02 326.234 L 1210.02 326.234 Q 1200.777 316.598 1187.798 316.598 L 1187.798 316.598 L 1187.798 316.598 Q 1180.129 316.598 1175.606 319.548 L 1175.606 319.548 L 1175.606 319.548 Q 1171.083 322.498 1171.083 327.808 L 1171.083 327.808 L 1171.083 327.808 Q 1171.083 330.757 1172.558 333.215 L 1172.558 333.215 L 1172.558 333.215 Q 1174.033 335.674 1177.868 337.837 L 1177.868 337.837 L 1177.868 337.837 Q 1181.702 340 1183.964 341.081 L 1183.964 341.081 L 1183.964 341.081 Q 1186.225 342.163 1192.321 344.523 L 1192.321 344.523 L 1192.321 344.523 Q 1208.25 350.226 1216.608 357.502 L 1216.608 357.502 L 1216.608 357.502 Q 1224.965 364.778 1224.965 377.953 L 1224.965 377.953 L 1224.965 377.953 Q 1224.965 391.326 1215.329 398.897 L 1215.329 398.897 L 1215.329 398.897 Q 1205.694 406.468 1189.175 406.468 Z  M 1290.45 406.468 L 1290.45 406.468 L 1290.45 406.468 Q 1269.998 406.468 1257.904 391.817 L 1257.904 391.817 L 1257.904 391.817 Q 1245.81 377.167 1245.81 353.765 L 1245.81 353.765 L 1245.81 353.765 Q 1245.81 329.184 1258.003 315.222 L 1258.003 315.222 L 1258.003 315.222 Q 1270.195 301.26 1290.45 301.26 L 1290.45 301.26 L 1290.45 301.26 Q 1308.542 301.26 1320.242 313.354 L 1320.242 313.354 L 1320.242 313.354 Q 1331.943 325.448 1331.943 349.046 L 1331.943 349.046 L 1331.943 349.046 Q 1331.943 354.552 1331.353 360.451 L 1331.353 360.451 L 1263.312 360.451 L 1263.312 360.451 Q 1264.295 374.217 1271.866 382.575 L 1271.866 382.575 L 1271.866 382.575 Q 1279.437 390.932 1290.843 390.932 L 1290.843 390.932 L 1290.843 390.932 Q 1303.429 390.932 1312.475 381.886 L 1312.475 381.886 L 1322.897 393.489 L 1322.897 393.489 Q 1309.918 406.468 1290.45 406.468 Z  M 1263.115 345.899 L 1263.115 345.899 L 1314.638 345.899 L 1314.638 345.899 Q 1314.441 330.364 1307.263 323.383 L 1307.263 323.383 L 1307.263 323.383 Q 1300.086 316.402 1290.45 316.402 L 1290.45 316.402 L 1290.45 316.402 Q 1278.847 316.402 1271.375 323.776 L 1271.375 323.776 L 1271.375 323.776 Q 1263.902 331.151 1263.115 345.899 Z " fill="rgb(255,255,255)"/><path d=" M 658.727 265.91 L 658.727 405.043 L 658.727 265.91 L 658.727 265.91 Z  M 735.696 315.349 L 735.696 404.084 L 735.696 315.349 L 735.696 315.349 Z  M 699.651 350.89 L 699.651 265.91 L 699.651 350.89 Z " fill-rule="evenodd" fill="none" vector-effect="non-scaling-stroke" stroke-width="15.921" stroke="rgb(255,255,255)" stroke-linejoin="miter" stroke-linecap="butt" stroke-miterlimit="3"/></g></svg>