<?xml version="1.0" standalone="no"?><!-- Generator: Gravit.io --><svg xmlns="http://www.w3.org/2000/svg" xmlns:xlink="http://www.w3.org/1999/xlink" style="isolation:isolate" viewBox="645.727 263.41 689.978 182.678" width="689.978" height="182.678"><defs><clipPath id="_clipPath_9NraWoD44d0OnAmyJU1pYKBSRQm4uUdz"><rect x="645.727" y="263.41" width="689.978" height="182.678"/></clipPath></defs><g clip-path="url(#_clipPath_9NraWoD44d0OnAmyJU1pYKBSRQm4uUdz)"><path d=" M 848.921 392.117 L 848.921 392.117 L 848.921 392.117 Q 836.925 406.178 816.473 406.178 L 816.473 406.178 L 816.473 406.178 Q 796.022 406.178 784.026 392.215 L 784.026 392.215 L 784.026 392.215 Q 772.03 378.253 772.03 353.672 L 772.03 353.672 L 772.03 353.672 Q 772.03 329.091 784.026 315.03 L 784.026 315.03 L 784.026 315.03 Q 796.022 300.97 816.473 300.97 L 816.473 300.97 L 816.473 300.97 Q 836.925 300.97 848.921 314.932 L 848.921 314.932 L 848.921 314.932 Q 860.916 328.894 860.916 353.475 L 860.916 353.475 L 860.916 353.475 Q 860.916 378.057 848.921 392.117 Z  M 796.513 380.515 L 796.513 380.515 L 796.513 380.515 Q 803.691 390.249 816.473 390.249 L 816.473 390.249 L 816.473 390.249 Q 829.256 390.249 836.433 380.515 L 836.433 380.515 L 836.433 380.515 Q 843.611 370.781 843.611 353.475 L 843.611 353.475 L 843.611 353.475 Q 843.611 336.367 836.433 326.534 L 836.433 326.534 L 836.433 326.534 Q 829.256 316.702 816.473 316.702 L 816.473 316.702 L 816.473 316.702 Q 803.691 316.702 796.513 326.436 L 796.513 326.436 L 796.513 326.436 Q 789.336 336.17 789.336 353.672 L 789.336 353.672 L 789.336 353.672 Q 789.336 370.781 796.513 380.515 Z  M 918.535 444.524 L 918.535 444.524 L 910.276 431.152 L 910.276 431.152 Q 932.104 429.972 940.461 423.581 L 940.461 423.581 L 940.461 423.581 Q 948.819 417.19 948.819 406.178 L 948.819 406.178 L 948.819 393.985 L 948.819 393.985 Q 939.97 406.178 922.861 406.178 L 922.861 406.178 L 922.861 406.178 Q 905.163 406.178 893.462 392.412 L 893.462 392.412 L 893.462 392.412 Q 881.761 378.647 881.761 353.475 L 881.761 353.475 L 881.761 353.475 Q 881.761 329.091 893.265 315.03 L 893.265 315.03 L 893.265 315.03 Q 904.769 300.97 923.451 300.97 L 923.451 300.97 L 923.451 300.97 Q 939.183 300.97 948.819 311.589 L 948.819 311.589 L 948.819 303.33 L 965.927 303.33 L 965.927 399.688 L 965.927 399.688 Q 965.927 422.696 953.637 432.922 L 953.637 432.922 L 953.637 432.922 Q 941.346 443.148 918.535 444.524 Z  M 926.401 390.249 L 926.401 390.249 L 926.401 390.249 Q 932.694 390.249 938.888 386.414 L 938.888 386.414 L 938.888 386.414 Q 945.083 382.58 948.819 376.09 L 948.819 376.09 L 948.819 330.074 L 948.819 330.074 Q 945.279 324.174 938.79 320.438 L 938.79 320.438 L 938.79 320.438 Q 932.3 316.702 926.401 316.702 L 926.401 316.702 L 926.401 316.702 Q 913.029 316.702 906.047 326.239 L 906.047 326.239 L 906.047 326.239 Q 899.066 335.777 899.066 353.475 L 899.066 353.475 L 899.066 353.475 Q 899.066 370.584 906.637 380.416 L 906.637 380.416 L 906.637 380.416 Q 914.208 390.249 926.401 390.249 Z  M 1077.428 403.818 L 1060.32 403.818 L 1060.32 343.053 L 1060.32 343.053 Q 1060.32 329.484 1054.518 323.093 L 1054.518 323.093 L 1054.518 323.093 Q 1048.717 316.702 1038.688 316.702 L 1038.688 316.702 L 1038.688 316.702 Q 1015.483 316.702 1015.483 342.66 L 1015.483 342.66 L 1015.483 403.818 L 998.375 403.818 L 998.375 303.33 L 1015.483 303.33 L 1015.483 313.555 L 1015.483 313.555 Q 1024.726 300.97 1041.441 300.97 L 1041.441 300.97 L 1041.441 300.97 Q 1059.14 300.97 1068.284 311.687 L 1068.284 311.687 L 1068.284 311.687 Q 1077.428 322.405 1077.428 346.003 L 1077.428 346.003 L 1077.428 403.818 Z  M 1125.411 281.993 L 1125.411 281.993 L 1125.411 281.993 Q 1122.264 285.041 1117.741 285.041 L 1117.741 285.041 L 1117.741 285.041 Q 1113.218 285.041 1110.17 281.895 L 1110.17 281.895 L 1110.17 281.895 Q 1107.122 278.748 1107.122 274.422 L 1107.122 274.422 L 1107.122 274.422 Q 1107.122 269.899 1110.269 266.654 L 1110.269 266.654 L 1110.269 266.654 Q 1113.415 263.41 1117.741 263.41 L 1117.741 263.41 L 1117.741 263.41 Q 1122.264 263.41 1125.411 266.654 L 1125.411 266.654 L 1125.411 266.654 Q 1128.557 269.899 1128.557 274.422 L 1128.557 274.422 L 1128.557 274.422 Q 1128.557 278.945 1125.411 281.993 Z  M 1126.394 403.818 L 1109.285 403.818 L 1109.285 303.33 L 1126.394 303.33 L 1126.394 403.818 Z  M 1188.732 406.178 L 1188.732 406.178 L 1188.732 406.178 Q 1177.916 406.178 1168.182 401.556 L 1168.182 401.556 L 1168.182 401.556 Q 1158.448 396.935 1152.352 389.266 L 1152.352 389.266 L 1164.544 378.843 L 1164.544 378.843 Q 1175.753 390.839 1189.125 390.839 L 1189.125 390.839 L 1189.125 390.839 Q 1197.581 390.839 1202.694 387.594 L 1202.694 387.594 L 1202.694 387.594 Q 1207.807 384.349 1207.807 378.057 L 1207.807 378.057 L 1207.807 378.057 Q 1207.807 373.337 1204.071 369.502 L 1204.071 369.502 L 1204.071 369.502 Q 1200.334 365.668 1196.401 363.799 L 1196.401 363.799 L 1196.401 363.799 Q 1192.468 361.931 1184.799 358.982 L 1184.799 358.982 L 1184.799 358.982 Q 1169.46 353.279 1161.594 346.199 L 1161.594 346.199 L 1161.594 346.199 Q 1153.728 339.12 1153.728 327.518 L 1153.728 327.518 L 1153.728 327.518 Q 1153.728 315.325 1163.266 308.147 L 1163.266 308.147 L 1163.266 308.147 Q 1172.803 300.97 1187.552 300.97 L 1187.552 300.97 L 1187.552 300.97 Q 1208.594 300.97 1221.376 316.112 L 1221.376 316.112 L 1209.577 325.944 L 1209.577 325.944 Q 1200.334 316.308 1187.355 316.308 L 1187.355 316.308 L 1187.355 316.308 Q 1179.686 316.308 1175.163 319.258 L 1175.163 319.258 L 1175.163 319.258 Q 1170.64 322.208 1170.64 327.518 L 1170.64 327.518 L 1170.64 327.518 Q 1170.64 330.467 1172.115 332.925 L 1172.115 332.925 L 1172.115 332.925 Q 1173.59 335.384 1177.425 337.547 L 1177.425 337.547 L 1177.425 337.547 Q 1181.259 339.71 1183.521 340.791 L 1183.521 340.791 L 1183.521 340.791 Q 1185.782 341.873 1191.878 344.233 L 1191.878 344.233 L 1191.878 344.233 Q 1207.807 349.936 1216.165 357.212 L 1216.165 357.212 L 1216.165 357.212 Q 1224.522 364.488 1224.522 377.663 L 1224.522 377.663 L 1224.522 377.663 Q 1224.522 391.036 1214.887 398.607 L 1214.887 398.607 L 1214.887 398.607 Q 1205.251 406.178 1188.732 406.178 Z  M 1290.007 406.178 L 1290.007 406.178 L 1290.007 406.178 Q 1269.555 406.178 1257.461 391.527 L 1257.461 391.527 L 1257.461 391.527 Q 1245.367 376.877 1245.367 353.475 L 1245.367 353.475 L 1245.367 353.475 Q 1245.367 328.894 1257.56 314.932 L 1257.56 314.932 L 1257.56 314.932 Q 1269.752 300.97 1290.007 300.97 L 1290.007 300.97 L 1290.007 300.97 Q 1308.099 300.97 1319.799 313.064 L 1319.799 313.064 L 1319.799 313.064 Q 1331.5 325.158 1331.5 348.756 L 1331.5 348.756 L 1331.5 348.756 Q 1331.5 354.262 1330.91 360.161 L 1330.91 360.161 L 1262.869 360.161 L 1262.869 360.161 Q 1263.852 373.927 1271.423 382.285 L 1271.423 382.285 L 1271.423 382.285 Q 1278.994 390.642 1290.4 390.642 L 1290.4 390.642 L 1290.4 390.642 Q 1302.986 390.642 1312.032 381.596 L 1312.032 381.596 L 1322.454 393.199 L 1322.454 393.199 Q 1309.475 406.178 1290.007 406.178 Z  M 1262.672 345.609 L 1262.672 345.609 L 1314.195 345.609 L 1314.195 345.609 Q 1313.998 330.074 1306.82 323.093 L 1306.82 323.093 L 1306.82 323.093 Q 1299.643 316.112 1290.007 316.112 L 1290.007 316.112 L 1290.007 316.112 Q 1278.404 316.112 1270.932 323.486 L 1270.932 323.486 L 1270.932 323.486 Q 1263.459 330.861 1262.672 345.609 Z " fill="rgb(0,0,0)"/><g><line x1="658.284" y1="265.62" x2="658.284" y2="404.753" vector-effect="non-scaling-stroke" stroke-width="15.921" stroke="rgb(0,0,0)" stroke-linejoin="miter" stroke-linecap="butt" stroke-miterlimit="3"/><line x1="735.253" y1="315.059" x2="735.253" y2="403.794" vector-effect="non-scaling-stroke" stroke-width="15.921" stroke="rgb(0,0,0)" stroke-linejoin="miter" stroke-linecap="butt" stroke-miterlimit="3"/><line x1="699.208" y1="350.6" x2="699.208" y2="265.62" vector-effect="non-scaling-stroke" stroke-width="15.921" stroke="rgb(0,0,0)" stroke-linejoin="miter" stroke-linecap="butt" stroke-miterlimit="3"/></g></g></svg>